<svg width="200" height="200" viewBox="0 0 200 200" fill="none" xmlns="http://www.w3.org/2000/svg">
<path d="M189.368 116.566L189.31 116.595C182.454 121.852 179.55 130.799 181.99 139.077L182.019 139.136C185.911 152.294 176.268 165.568 162.557 165.917H162.499C153.843 166.15 146.232 171.668 143.356 179.831V179.86C138.767 192.815 123.14 197.898 111.84 190.084C104.824 185.293 95.5482 185.043 88.1662 190.084H88.1373C76.8381 197.869 61.2104 192.815 56.6498 179.831C55.2422 175.847 52.6586 172.384 49.2408 169.899C45.8229 167.415 41.7316 166.026 37.5076 165.917H37.4494C23.7393 165.568 14.0951 152.294 17.9877 139.135L18.0166 139.077C20.4561 130.798 17.5514 121.852 10.6967 116.594L10.6385 116.565C-0.254492 108.199 -0.254492 91.8169 10.6385 83.4513L10.6967 83.4224C17.5514 78.1649 20.4561 69.2181 17.9877 60.9395V60.8813C14.0658 47.7231 23.7389 34.4481 37.4494 34.0997H37.5076C46.1346 33.8673 53.774 28.3481 56.6498 20.186V20.1571C61.21 7.20204 76.8381 2.11884 88.1373 9.9329H88.1662C95.2826 14.8419 104.694 14.8419 111.84 9.9329C123.253 2.05126 138.794 7.27978 143.356 20.1571V20.186C146.232 28.3192 153.842 33.8677 162.499 34.0997H162.557C176.267 34.4481 185.911 47.7231 182.019 60.8813L181.99 60.9395C179.55 69.2181 182.454 78.1649 189.31 83.4224L189.368 83.4513C200.261 91.8169 200.261 108.2 189.368 116.566Z" fill="#3EB655"/>
<path d="M100.007 154.111C129.89 154.111 154.115 129.886 154.115 100.003C154.115 70.1196 129.89 45.8945 100.007 45.8945C70.1235 45.8945 45.8984 70.1196 45.8984 100.003C45.8984 129.886 70.1235 154.111 100.007 154.111Z" fill="#8BD399"/>
<path opacity="0.2" d="M141.552 65.368C132.193 57.6687 120.219 53.041 107.166 53.041C77.2832 53.041 53.0449 77.2793 53.0449 107.162C53.0449 120.215 57.6727 132.189 65.3715 141.548C53.4805 131.629 45.9062 116.708 45.9062 100.003C45.9062 70.1195 70.1238 45.9023 100.007 45.9023C116.712 45.9023 131.633 53.4766 141.552 65.368Z" fill="white"/>
<path d="M87.1276 121.184L75.1624 108.454C72.0288 105.12 72.1905 99.877 75.5237 96.7434C78.8569 93.6059 84.1019 93.7743 87.2327 97.1063L92.9444 103.181L117.223 75.4313C120.232 71.9876 125.467 71.6384 128.913 74.652C132.357 77.6657 132.705 82.8985 129.692 86.3423L99.3976 120.965C96.1702 124.65 90.4745 124.747 87.1276 121.184Z" fill="white"/>
</svg>
