<svg width="200" height="200" viewBox="0 0 200 200" fill="none" xmlns="http://www.w3.org/2000/svg">
<g clip-path="url(#clip0_2441_104288)">
<path d="M96.1014 186.477H4.02414C1.80161 186.477 0 184.675 0 182.452V35.9148C0 33.6922 1.80161 31.8906 4.02414 31.8906H96.1014C98.3239 31.8906 100.126 33.6922 100.126 35.9148V182.452C100.126 184.675 98.3239 186.477 96.1014 186.477Z" fill="#E1EBF0"/>
<path d="M100.125 35.9148V172.543C100.125 174.765 98.3236 176.567 96.1011 176.567H13.8757C11.6532 176.567 9.85156 174.765 9.85156 172.543V35.9148C9.85156 33.6922 11.6532 31.8906 13.8757 31.8906H96.1011C98.3236 31.8906 100.125 33.6922 100.125 35.9148Z" fill="#D2E4E7"/>
<path d="M128.104 170.531H19.907C17.6844 170.531 15.8828 168.729 15.8828 166.507V19.9695C15.8828 17.7469 17.6844 15.9453 19.907 15.9453H128.104C130.327 15.9453 132.128 17.7469 132.128 19.9695V166.507C132.128 168.729 130.326 170.531 128.104 170.531Z" fill="#E1EBF0"/>
<path d="M132.133 19.9734V156.601C132.133 158.824 130.331 160.625 128.109 160.625H29.7585C27.536 160.625 25.7344 158.824 25.7344 156.601V19.9734C25.7344 17.7508 27.536 15.9492 29.7585 15.9492H128.109C130.331 15.9492 132.133 17.7508 132.133 19.9734Z" fill="#D2E4E7"/>
<path d="M31.7734 150.563V4.02415C31.7734 1.80161 33.575 0 35.7976 0H143.995C146.217 0 148.019 1.80161 148.019 4.02415V150.563C148.019 152.786 146.217 154.588 143.995 154.588H35.7976C33.575 154.588 31.7734 152.786 31.7734 150.563Z" fill="#E1EBF0"/>
<path d="M101.067 54.4068H132.926C133.459 54.4068 133.971 54.1949 134.348 53.8175C134.726 53.4402 134.938 52.9284 134.938 52.3948V20.3988C134.938 19.8652 134.726 19.3534 134.348 18.976C133.971 18.5987 133.459 18.3867 132.926 18.3867H101.067C100.533 18.3867 100.021 18.5987 99.644 18.976C99.2667 19.3534 99.0547 19.8652 99.0547 20.3988V52.3948C99.0547 52.9284 99.2667 53.4402 99.644 53.8175C100.021 54.1949 100.533 54.4068 101.067 54.4068Z" fill="#F3D332"/>
<path d="M109.107 54.4068H101.059C99.9483 54.4068 99.0469 53.5054 99.0469 52.3948V20.3988C99.0469 19.2881 99.9483 18.3867 101.059 18.3867H109.107C107.997 18.3867 107.095 19.2881 107.095 20.3988V52.3948C107.095 53.5054 107.997 54.4068 109.107 54.4068Z" fill="#ECC52E"/>
<path d="M85.9699 52.5463H44.854C43.1868 52.5463 41.8359 51.1954 41.8359 49.5282C41.8359 47.861 43.1868 46.5101 44.854 46.5101H85.9699C87.6371 46.5101 88.988 47.861 88.988 49.5282C88.988 51.1954 87.6367 52.5463 85.9699 52.5463ZM110.639 78.061H69.1498C67.4826 78.061 66.1317 76.7101 66.1317 75.0429C66.1317 73.3757 67.4826 72.0248 69.1498 72.0248H110.639C112.306 72.0248 113.657 73.3757 113.657 75.0429C113.657 76.7101 112.306 78.061 110.639 78.061ZM85.9699 39.4143H44.854C43.1868 39.4143 41.8359 38.0634 41.8359 36.3962C41.8359 34.729 43.1868 33.3781 44.854 33.3781H85.9699C87.6371 33.3781 88.988 34.729 88.988 36.3962C88.988 38.0634 87.6367 39.4143 85.9699 39.4143ZM85.9699 26.2823H44.854C43.1868 26.2823 41.8359 24.9314 41.8359 23.2642C41.8359 21.597 43.1868 20.2461 44.854 20.2461H85.9699C87.6371 20.2461 88.988 21.597 88.988 23.2642C88.988 24.9314 87.6367 26.2823 85.9699 26.2823ZM106.768 111.454H44.854C43.1868 111.454 41.8359 110.103 41.8359 108.436C41.8359 106.769 43.1868 105.418 44.854 105.418H106.768C108.435 105.418 109.786 106.769 109.786 108.436C109.786 110.103 108.435 111.454 106.768 111.454ZM93.819 94.57H44.854C43.1868 94.57 41.8359 93.2191 41.8359 91.5519C41.8359 89.8847 43.1868 88.5338 44.854 88.5338H93.819C95.4862 88.5338 96.8371 89.8847 96.8371 91.5519C96.8371 93.2191 95.4858 94.57 93.819 94.57ZM135.122 94.57H106.901C105.234 94.57 103.883 93.2191 103.883 91.5519C103.883 89.8847 105.234 88.5338 106.901 88.5338H135.122C136.789 88.5338 138.14 89.8847 138.14 91.5519C138.14 93.2191 136.789 94.57 135.122 94.57Z" fill="#B4D2D7"/>
<path d="M158.943 129.07C161.166 129.07 162.967 130.871 162.967 133.094V135.826C162.967 146.184 154.601 154.587 144.279 154.587L83.2626 156.599L50.0859 154.587C60.4079 154.587 68.7781 146.184 68.7781 135.826V133.094C68.7781 130.871 70.5797 129.07 72.8022 129.07H158.943ZM148.018 103.528V129.07H106.078C113.333 113.605 128.971 103.492 146.283 103.492C146.863 103.492 147.442 103.504 148.018 103.528Z" fill="#D2E4E7"/>
<path d="M132.129 129.07V156.6C132.129 158.821 130.326 160.624 128.105 160.624H103.67C103.22 159.103 102.853 157.549 102.568 155.964C102.101 153.388 101.859 150.732 101.859 148.024C101.859 142.958 102.7 137.984 104.366 133.239C104.869 131.811 105.437 130.423 106.073 129.07H132.129Z" fill="#B4D2D7"/>
<path d="M176.946 167.645L197.375 185.822C200.761 189.161 200.885 194.483 197.652 197.686C194.424 200.885 189.077 200.752 185.725 197.389L165.32 179.114L176.946 167.645Z" fill="#F3D332"/>
<path d="M183.006 173.037C179.918 177.581 176.019 181.518 171.505 184.651L165.32 179.113L176.946 167.641L183.006 173.037Z" fill="#ECC52E"/>
<path d="M132.131 156.598V166.505C132.131 168.726 130.328 170.529 128.106 170.529H107.966C106.151 167.447 104.702 164.123 103.672 160.622H128.106C130.328 160.622 132.131 158.819 132.131 156.598Z" fill="#D2E4E7"/>
<path d="M109.906 148.025C109.906 143.777 110.63 139.698 111.961 135.906C116.942 121.714 130.425 111.543 146.276 111.543C166.363 111.543 182.646 127.877 182.646 148.025C182.646 168.174 166.363 184.508 146.276 184.508C126.19 184.508 109.906 168.174 109.906 148.025Z" fill="#30579D"/>
<path d="M174.143 171.468C167.479 179.44 157.471 184.507 146.284 184.507C126.196 184.507 109.914 168.173 109.914 148.024C109.914 143.774 110.638 139.698 111.966 135.903C114.429 128.889 118.972 122.857 124.852 118.551C122.04 121.905 119.856 125.738 118.405 129.867C117.077 133.661 116.353 137.738 116.353 141.987C116.353 162.136 132.634 178.47 152.723 178.47C160.731 178.47 168.135 175.871 174.143 171.468Z" fill="#30569F"/>
<path d="M123.57 148.024C123.567 145.447 124.001 142.889 124.854 140.457C127.964 131.597 136.382 125.246 146.278 125.246C158.819 125.246 168.986 135.444 168.986 148.024C168.986 160.604 158.819 170.802 146.278 170.802C133.737 170.802 123.57 160.604 123.57 148.024Z" fill="#E1EBF0"/>
<path d="M165.824 159.618C161.872 166.314 154.596 170.801 146.279 170.801C133.735 170.801 123.57 160.604 123.57 148.025C123.57 145.373 124.021 142.825 124.854 140.459C126.637 135.391 130.151 131.114 134.778 128.383C134.025 129.65 133.397 130.999 132.902 132.411C132.049 134.842 131.615 137.4 131.619 139.976C131.619 152.556 141.784 162.753 154.327 162.753C158.524 162.753 162.452 161.61 165.824 159.618Z" fill="#D2E4E7"/>
</g>
<defs>
<clipPath id="clip0_2441_104288">
<rect width="200" height="200" fill="white"/>
</clipPath>
</defs>
</svg>
