<svg width="14" height="14" viewBox="0 0 14 14" fill="none" xmlns="http://www.w3.org/2000/svg">
<path d="M7.32233 11.3556C7.12002 11.2423 6.87339 11.2423 6.67107 11.3556L3.55584 13.0994C3.05944 13.3773 2.46548 12.9457 2.57632 12.3878L3.27199 8.88601C3.31717 8.6586 3.24095 8.42404 3.07071 8.26663L0.449241 5.8426C0.0315533 5.45637 0.258406 4.7581 0.823337 4.69109L4.36883 4.2706C4.59905 4.2433 4.79856 4.09835 4.89567 3.88783L6.39135 0.645588C6.62963 0.129042 7.36378 0.129043 7.60206 0.645589L9.09774 3.88783C9.19485 4.09835 9.39435 4.2433 9.62458 4.2706L13.1701 4.69109C13.735 4.7581 13.9619 5.45637 13.5442 5.8426L10.9227 8.26663C10.7525 8.42404 10.6762 8.6586 10.7214 8.88601L11.4171 12.3878C11.5279 12.9457 10.934 13.3773 10.4376 13.0994L7.32233 11.3556Z" fill="#F9C332"/>
</svg>
